<?xml version="1.0" encoding="UTF-8"?>
<svg width="101px" height="101px" viewBox="0 0 101 101" version="1.1" xmlns="http://www.w3.org/2000/svg" xmlns:xlink="http://www.w3.org/1999/xlink">
    <title>Group 20</title>
    <defs>
        <filter id="filter-1">
            <feColorMatrix in="SourceGraphic" type="matrix" values="0 0 0 0 0.200000 0 0 0 0 0.427451 0 0 0 0 0.647059 0 0 0 1.000000 0"></feColorMatrix>
        </filter>
    </defs>
    <g id="Persistent-Player" stroke="none" stroke-width="1" fill="none" fill-rule="evenodd">
        <g id="Persistent-Player---Hover-states" transform="translate(-891.000000, -1592.000000)">
            <g id="Group-17" transform="translate(891.500000, 1592.482759)">
                <rect id="Rectangle" fill="#CCDBE9" x="0" y="0" width="100" height="100"></rect>
                <g filter="url(#filter-1)" fill-opacity="0.75" id="Group-2">
                    <g transform="translate(25.000000, 25.000000)">
                        <path d="M33.6183099,24.7711268 C33.6183099,29.6598592 29.6549296,33.6225352 24.7661972,33.6225352 C19.8767606,33.6225352 15.9140845,29.6598592 15.9140845,24.7711268 C15.9140845,19.8816901 19.8767606,15.9183099 24.7661972,15.9183099 C29.6549296,15.9183099 33.6183099,19.8816901 33.6183099,24.7711268" id="Fill-1" fill="#00498F" fill-rule="nonzero"></path>
                        <path d="M14.5485915,33.6225352 C9.65633803,33.6225352 5.6915493,29.6591549 5.6915493,24.771831 C5.6915493,19.8816901 9.65633803,15.9147887 14.5478873,15.9147887 L14.5485915,33.6225352" id="Fill-2" fill="#00498F" fill-rule="nonzero"></path>
                        <path d="M34.9915493,43.3894366 L34.993662,34.9894366 L43.3978873,34.9929577 C43.3978873,39.6359155 39.6338028,43.3894366 34.9915493,43.3894366" id="Fill-3" fill="#00498F" fill-rule="nonzero"></path>
                        <path d="M14.5478873,6.14295775 L14.5478873,14.5535211 L6.13309859,14.5542254 C6.13309859,9.90985915 9.90211268,6.14295775 14.5478873,6.14295775" id="Fill-4" fill="#00498F" fill-rule="nonzero"></path>
                        <path d="M14.5485915,43.3950704 L14.5485915,34.9894366 L6.13521127,34.9929577 C6.13521127,39.6359155 9.9,43.3950704 14.5485915,43.3950704" id="Fill-5" fill="#00498F" fill-rule="nonzero"></path>
                        <path d="M45.2204225,32.3788732 L45.215493,17.1640845 C47.8070423,18.7077465 49.543662,21.5359155 49.543662,24.771831 C49.543662,28.0056338 47.8070423,30.8316901 45.2204225,32.3788732" id="Fill-6" fill="#00498F" fill-rule="nonzero"></path>
                        <path d="M17.1619718,4.32253521 L32.3767606,4.32464789 C30.8330986,1.73239437 28.0077465,-4.4408921e-16 24.771831,-4.4408921e-16 C21.5359155,-4.4408921e-16 18.706338,1.73239437 17.1619718,4.32253521" id="Fill-7" fill="#00498F" fill-rule="nonzero"></path>
                        <path d="M32.2647887,45.2183099 L17.0478873,45.2169014 C18.5929577,47.8070423 21.4197183,49.543662 24.656338,49.543662 C27.8915493,49.543662 30.7190141,47.8091549 32.2647887,45.2183099" id="Fill-8" fill="#00498F" fill-rule="nonzero"></path>
                        <path d="M33.6211268,34.9929577 C33.6211268,39.8838028 29.6591549,43.8464789 24.7711268,43.8464789 C19.8802817,43.8464789 15.9140845,39.8838028 15.9140845,34.9929577 L33.6211268,34.9929577" id="Fill-9" fill="#00498F" fill-rule="nonzero"></path>
                        <path d="M34.993662,33.6225352 C39.8823944,33.6225352 43.8492958,29.6591549 43.8492958,24.771831 C43.8492958,19.8816901 39.8823944,15.9147887 34.993662,15.9147887 L34.993662,33.6225352" id="Fill-10" fill="#00498F" fill-rule="nonzero"></path>
                        <g id="Group-14" transform="translate(0.000000, 5.542958)" fill="#00498F" fill-rule="nonzero">
                            <path d="M33.6211268,9.02042254 C33.6211268,4.13239437 29.6591549,0.168309859 24.7711268,0.168309859 C19.8802817,0.168309859 15.9140845,4.13239437 15.9140845,9.02042254 L33.6211268,9.02042254" id="Fill-11"></path>
                            <path d="M4.32183099,26.8359155 L4.32535211,11.6211268 C1.73309859,13.1647887 0,15.9929577 0,19.2288732 C0,22.4626761 1.73309859,25.2887324 4.32183099,26.8359155" id="Fill-13"></path>
                        </g>
                        <path d="M43.3978873,14.5584507 L34.993662,14.5535211 L34.9922535,6.15070423 C39.6338028,6.15070423 43.3978873,9.91267606 43.3978873,14.5584507" id="Fill-15" fill="#00498F" fill-rule="nonzero"></path>
                    </g>
                </g>
            </g>
        </g>
    </g>
</svg>